<?xml version="1.0" encoding="UTF-8" standalone="no"?>
<!-- Created with Inkscape (http://www.inkscape.org/) -->

<svg
   xmlns:dc="http://purl.org/dc/elements/1.1/"
   xmlns:cc="http://creativecommons.org/ns#"
   xmlns:rdf="http://www.w3.org/1999/02/22-rdf-syntax-ns#"
   xmlns:svg="http://www.w3.org/2000/svg"
   xmlns="http://www.w3.org/2000/svg"
   xmlns:sodipodi="http://sodipodi.sourceforge.net/DTD/sodipodi-0.dtd"
   xmlns:inkscape="http://www.inkscape.org/namespaces/inkscape"
   width="2048"
   height="2048"
   viewBox="0 0 541.86665 541.86668"
   version="1.1"
   id="svg8"
   inkscape:version="0.92.4 (5da689c313, 2019-01-14)"
   sodipodi:docname="track.svg"
   inkscape:export-filename="D:\Unity Projects\Racing Sandbox\Production\asphalt.png"
   inkscape:export-xdpi="96"
   inkscape:export-ydpi="96">
  <defs
     id="defs2" />
  <sodipodi:namedview
     id="base"
     pagecolor="#ffffff"
     bordercolor="#666666"
     borderopacity="1.0"
     inkscape:pageopacity="0.0"
     inkscape:pageshadow="2"
     inkscape:zoom="0.24748737"
     inkscape:cx="120.57529"
     inkscape:cy="730.04967"
     inkscape:document-units="mm"
     inkscape:current-layer="layer1"
     showgrid="false"
     units="px"
     inkscape:window-width="1920"
     inkscape:window-height="1177"
     inkscape:window-x="-8"
     inkscape:window-y="-8"
     inkscape:window-maximized="1"
     inkscape:snap-global="false" />
  <metadata
     id="metadata5">
    <rdf:RDF>
      <cc:Work
         rdf:about="">
        <dc:format>image/svg+xml</dc:format>
        <dc:type
           rdf:resource="http://purl.org/dc/dcmitype/StillImage" />
        <dc:title />
      </cc:Work>
    </rdf:RDF>
  </metadata>
  <g
     inkscape:label="Layer 1"
     inkscape:groupmode="layer"
     id="layer1"
     transform="translate(0,244.86668)">
    <g
       id="g949"
       inkscape:export-filename="D:\Unity Projects\Racing Sandbox\Assets\Textures\track.png"
       inkscape:export-xdpi="96"
       inkscape:export-ydpi="96">
      <path
         id="rect815"
         transform="matrix(0.26458333,0,0,0.26458333,0,-244.86668)"
         d="M 0 0 L 0 1024 L 0 2048 L 1024 2048 L 2048 2048 L 2048 1024 L 2048 0 L 1024 0 L 0 0 z "
         style="color:#000000;clip-rule:nonzero;display:inline;overflow:visible;visibility:visible;opacity:1;isolation:auto;mix-blend-mode:normal;color-interpolation:sRGB;color-interpolation-filters:linearRGB;solid-color:#000000;solid-opacity:1;vector-effect:none;fill:#1a1a1a;fill-opacity:1;fill-rule:evenodd;stroke:none;stroke-width:7.55905533;stroke-linecap:square;stroke-linejoin:miter;stroke-miterlimit:4;stroke-dasharray:none;stroke-dashoffset:0;stroke-opacity:1;paint-order:markers stroke fill;color-rendering:auto;image-rendering:auto;shape-rendering:auto;text-rendering:auto;enable-background:accumulate" />
      <path
         id="rect819"
         transform="matrix(0.26458333,0,0,0.26458333,0,-244.86668)"
         d="M 65.472656 72.730469 L 65.472656 500.72266 L 536.8125 500.72266 L 536.8125 72.730469 L 65.472656 72.730469 z M 1511.1875 72.730469 L 1511.1875 500.72266 L 1982.5273 500.72266 L 1982.5273 72.730469 L 1511.1875 72.730469 z M 569.72656 569.41211 L 569.72656 1024 L 569.72656 1478.5879 L 1024 1478.5879 L 1478.2734 1478.5879 L 1478.2734 1024 L 1478.2734 569.41211 L 1024 569.41211 L 569.72656 569.41211 z M 92.46875 928.55469 L 92.46875 1024 L 92.46875 1119.4453 L 464.08008 1119.4453 L 464.08008 1024 L 464.08008 928.55469 L 92.46875 928.55469 z M 1583.9199 928.55469 L 1583.9199 1024 L 1583.9199 1119.4453 L 1955.5312 1119.4453 L 1955.5312 1024 L 1955.5312 928.55469 L 1583.9199 928.55469 z M 65.472656 1547.2773 L 65.472656 1975.2695 L 536.8125 1975.2695 L 536.8125 1547.2773 L 65.472656 1547.2773 z M 1511.1875 1547.2773 L 1511.1875 1975.2695 L 1982.5273 1975.2695 L 1982.5273 1547.2773 L 1511.1875 1547.2773 z "
         style="color:#000000;clip-rule:nonzero;display:inline;overflow:visible;visibility:visible;opacity:1;isolation:auto;mix-blend-mode:normal;color-interpolation:sRGB;color-interpolation-filters:linearRGB;solid-color:#000000;solid-opacity:1;vector-effect:none;fill:#333333;fill-opacity:1;fill-rule:evenodd;stroke:none;stroke-width:3.14449334;stroke-linecap:square;stroke-linejoin:miter;stroke-miterlimit:4;stroke-dasharray:none;stroke-dashoffset:0;stroke-opacity:1;paint-order:markers stroke fill;color-rendering:auto;image-rendering:auto;shape-rendering:auto;text-rendering:auto;enable-background:accumulate" />
      <path
         id="path844"
         transform="matrix(0.26458333,0,0,0.26458333,0,-244.86668)"
         d="M 262.58789 0 L 262.58789 52.476562 L 262.61719 53.066406 C 262.61719 53.066406 263.37185 68.508963 263.74805 86.529297 C 264.12426 104.54963 263.7439 126.48735 262.83984 132.77539 C 258.99024 159.54869 264.44259 182.32359 267.30469 202.94141 C 270.16679 223.55926 271.3449 242.03363 263.76953 265.28906 C 253.5624 296.62373 255.26765 320.50592 258.48438 340.18555 C 261.70109 359.86506 265.57204 375.97778 262.69141 407.04297 C 256.41117 474.76976 253.16304 497.73242 263.00195 550.21484 C 266.99597 571.51948 264.22547 582.94476 261.16406 602.66992 C 258.10266 622.39508 255.4721 648.63194 263.04688 686.97852 C 269.98794 722.11702 270.71783 729.27572 269.78516 740.43945 C 268.85249 751.60318 265.13108 770.27512 262.625 817.58594 C 257.70279 910.50277 256.01953 954.46875 256.01953 954.46875 L 255.99609 954.93359 L 255.99609 1024 L 255.99609 1093.0664 L 256.01953 1093.5312 C 256.01953 1093.5313 257.70295 1137.4972 262.625 1230.4141 C 265.13108 1277.7249 268.85232 1296.3968 269.78516 1307.5605 C 270.71783 1318.7243 269.98794 1325.883 263.04688 1361.0215 C 255.47209 1399.368 258.10266 1425.6049 261.16406 1445.3301 C 264.22547 1465.0552 266.99597 1476.4805 263.00195 1497.7852 C 253.16304 1550.2676 256.41117 1573.2302 262.69141 1640.957 C 265.57204 1672.0222 261.70109 1688.1349 258.48438 1707.8145 C 255.26765 1727.4941 253.5624 1751.3763 263.76953 1782.7109 C 271.3449 1805.9664 270.16679 1824.4407 267.30469 1845.0586 C 264.44259 1865.6764 258.99024 1888.4513 262.83984 1915.2246 C 263.7439 1921.5126 264.12426 1943.4504 263.74805 1961.4707 C 263.37185 1979.491 262.61719 1994.9336 262.61719 1994.9336 L 262.58789 1995.5234 L 262.58789 2048 L 310.59375 2048 L 310.59375 1996.3945 C 310.63159 1995.6144 311.35407 1980.7853 311.73633 1962.4746 C 312.12848 1943.6898 312.51887 1923.4833 310.34961 1908.3965 C 308.05242 1892.42 311.6499 1874.7221 314.85156 1851.6582 C 318.05322 1828.5943 319.945 1800.1784 309.41211 1767.8438 C 301.511 1743.5883 302.96508 1733.2298 305.85352 1715.5586 C 308.74196 1697.8876 313.92202 1673.536 310.49023 1636.5273 C 304.14569 1568.1065 301.07605 1555.189 310.17969 1506.6289 C 315.65698 1477.4123 311.40782 1456.107 308.5918 1437.9629 C 305.77577 1419.8187 303.67112 1403.0516 310.13477 1370.3301 C 317.23209 1334.4005 318.96121 1319.6947 317.61328 1303.5605 C 316.26536 1287.4264 312.96659 1273.3691 310.55664 1227.873 C 305.6629 1135.4877 304.01329 1092.4418 304.00195 1092.1504 L 304.00195 1024 L 304.00195 955.84961 C 304.01329 955.55823 305.6629 912.51233 310.55664 820.12695 C 312.96659 774.63089 316.26536 760.57365 317.61328 744.43945 C 318.96121 728.30526 317.23208 713.59951 310.13477 677.66992 C 303.67112 644.9484 305.77577 628.18126 308.5918 610.03711 C 311.40782 591.89296 315.65698 570.58771 310.17969 541.37109 C 301.07605 492.81097 304.14569 479.89352 310.49023 411.47266 C 313.92201 374.46398 308.74196 350.11244 305.85352 332.44141 C 302.96508 314.77023 301.511 304.41171 309.41211 280.15625 C 319.945 247.8216 318.05322 219.40568 314.85156 196.3418 C 311.6499 173.27791 308.05242 155.57999 310.34961 139.60352 C 312.51887 124.51674 312.12848 104.31025 311.73633 85.525391 C 311.35407 67.214713 310.63159 52.385563 310.59375 51.605469 L 310.59375 0 L 262.58789 0 z M 1737.4062 0 L 1737.4062 51.605469 C 1737.3681 52.385563 1736.6459 67.214713 1736.2637 85.525391 C 1735.8715 104.31025 1735.4811 124.51674 1737.6504 139.60352 C 1739.9475 155.57999 1736.3501 173.27791 1733.1484 196.3418 C 1729.9468 219.40568 1728.055 247.8216 1738.5879 280.15625 C 1746.489 304.41171 1745.0349 314.77023 1742.1465 332.44141 C 1739.258 350.11244 1734.078 374.46398 1737.5098 411.47266 C 1743.8545 479.89352 1746.9242 492.81097 1737.8203 541.37109 C 1732.343 570.58771 1736.5922 591.89296 1739.4082 610.03711 C 1742.2243 628.18126 1744.3289 644.9484 1737.8652 677.66992 C 1730.7679 713.59951 1729.0388 728.30526 1730.3867 744.43945 C 1731.7346 760.57365 1735.0333 774.63089 1737.4434 820.12695 C 1742.3371 912.51233 1743.9867 955.55823 1743.998 955.84961 L 1743.998 1024 L 1743.998 1092.1504 C 1743.9867 1092.4418 1742.3371 1135.4877 1737.4434 1227.873 C 1735.0334 1273.3691 1731.7346 1287.4264 1730.3867 1303.5605 C 1729.0388 1319.6947 1730.7679 1334.4005 1737.8652 1370.3301 C 1744.3289 1403.0516 1742.2243 1419.8187 1739.4082 1437.9629 C 1736.5922 1456.107 1732.343 1477.4123 1737.8203 1506.6289 C 1746.9238 1555.189 1743.8545 1568.1065 1737.5098 1636.5273 C 1734.078 1673.536 1739.258 1697.8876 1742.1465 1715.5586 C 1745.0349 1733.2298 1746.489 1743.5883 1738.5879 1767.8438 C 1728.055 1800.1784 1729.9468 1828.5943 1733.1484 1851.6582 C 1736.3501 1874.7221 1739.9475 1892.42 1737.6504 1908.3965 C 1735.4811 1923.4833 1735.8715 1943.6898 1736.2637 1962.4746 C 1736.6459 1980.7853 1737.3685 1995.6144 1737.4062 1996.3945 L 1737.4062 2048 L 1785.4141 2048 L 1785.4141 1995.5234 L 1785.3848 1994.9336 C 1785.3848 1994.9336 1784.63 1979.491 1784.2539 1961.4707 C 1783.8778 1943.4504 1784.2576 1921.5126 1785.1621 1915.2246 C 1789.0117 1888.4513 1783.5594 1865.6764 1780.6973 1845.0586 C 1777.8352 1824.4407 1776.657 1805.9664 1784.2324 1782.7109 C 1794.4395 1751.3763 1792.7344 1727.4941 1789.5176 1707.8145 C 1786.3009 1688.1349 1782.4299 1672.0222 1785.3105 1640.957 C 1791.5907 1573.2302 1794.8352 1550.2676 1784.9961 1497.7852 C 1781.0021 1476.4805 1783.7726 1465.0552 1786.834 1445.3301 C 1789.8954 1425.6049 1792.5278 1399.368 1784.9531 1361.0215 C 1778.0119 1325.883 1777.2803 1318.7243 1778.2129 1307.5605 C 1779.1456 1296.3968 1782.8671 1277.7249 1785.373 1230.4141 C 1790.295 1137.4972 1791.9785 1093.5312 1791.9785 1093.5312 L 1792.002 1093.0664 L 1792.002 1024 L 1792.002 954.93359 L 1791.9785 954.46875 C 1791.9785 954.46875 1790.2949 910.50277 1785.373 817.58594 C 1782.8671 770.27512 1779.1456 751.60318 1778.2129 740.43945 C 1777.2803 729.27572 1778.0099 722.11702 1784.9512 686.97852 C 1792.5259 648.63194 1789.8954 622.39508 1786.834 602.66992 C 1783.7726 582.94476 1781.0021 571.51948 1784.9961 550.21484 C 1794.8352 497.73242 1791.5887 474.76976 1785.3086 407.04297 C 1782.428 375.97778 1786.2989 359.86506 1789.5156 340.18555 C 1792.7325 320.50592 1794.4376 296.62373 1784.2305 265.28906 C 1776.6551 242.03363 1777.8332 223.55926 1780.6953 202.94141 C 1783.5574 182.32359 1789.0098 159.54869 1785.1602 132.77539 C 1784.2556 126.48735 1783.8759 104.54963 1784.252 86.529297 C 1784.628 68.508963 1785.3828 53.066406 1785.3828 53.066406 L 1785.4141 52.476562 L 1785.4141 0 L 1737.4062 0 z M 1024 68.138672 L 1024 259.58984 L 1040.2207 260.17578 L 1041.084 236.19141 L 1041.3359 229.19336 L 1041.9629 221.42773 L 1042.7969 214.11133 L 1042.8203 213.94922 L 1043.8965 205.96289 L 1043.9102 205.86719 L 1046.1641 189.64062 L 1046.2031 189.36719 L 1046.2324 189.08789 L 1047.1699 180.95312 L 1047.2129 180.55469 L 1047.252 180.14844 L 1047.9082 171.99023 L 1047.9531 171.42969 L 1047.9766 170.86914 L 1048.2578 162.64648 L 1048.2793 161.9375 L 1048.2656 161.2207 L 1048.0508 152.91602 L 1048.0273 152.07422 L 1047.9453 151.23242 L 1047.1328 142.81055 L 1047.0449 141.85742 L 1046.875 140.91992 L 1045.3613 132.34961 L 1045.3613 132.3418 L 1045.3613 132.33398 L 1044.6094 128.10352 L 1044.0918 123.65234 L 1043.709 118.33789 L 1043.4727 112.44727 L 1043.377 98.982422 L 1043.5391 92.626953 L 1044.1211 68.626953 L 1024 68.138672 z M 1024 68.138672 L 1003.8789 68.626953 L 1004.4609 92.626953 L 1004.623 98.982422 L 1004.5273 112.44727 L 1004.291 118.33789 L 1003.9082 123.65234 L 1003.3906 128.10352 L 1002.6387 132.33398 L 1002.6387 132.3418 L 1002.6387 132.34961 L 1001.125 140.91992 L 1000.9551 141.85742 L 1000.8672 142.81055 L 1000.0547 151.23242 L 999.97266 152.07422 L 999.94922 152.91602 L 999.73438 161.2207 L 999.71875 161.9375 L 999.74219 162.64648 L 1000.0234 170.86914 L 1000.0469 171.42969 L 1000.0918 171.99023 L 1000.748 180.14844 L 1000.7871 180.55469 L 1000.8301 180.95312 L 1001.7676 189.08789 L 1001.7969 189.36719 L 1001.8359 189.64062 L 1004.0879 205.86719 L 1004.1035 205.96289 L 1005.1797 213.94922 L 1005.2012 214.11133 L 1006.0352 221.42773 L 1006.6621 229.19336 L 1006.9141 236.19141 L 1007.7773 260.17578 L 1023.998 259.58984 L 1024 68.138672 z M 1007.4199 352.61719 L 1006.166 376.58594 L 1005.959 380.43945 L 1004.7266 392.02734 L 1002.5566 405.89844 L 1000.291 420.41797 L 1000.2012 420.99414 L 1000.1348 421.57812 L 998.75586 434.51172 L 998.6875 435.13867 L 998.65625 435.77344 L 998.03516 447.28906 L 997.99805 447.95312 L 997.99805 448.61719 L 998.02148 458.88672 L 998.02148 459.55859 L 998.06445 460.22852 L 998.59766 469.41211 L 998.63477 470.03906 L 998.70117 470.66797 L 999.61719 478.94336 L 999.67578 479.48047 L 999.76367 480.00586 L 1000.9375 487.54297 L 1000.9961 487.91211 L 1001.0703 488.28125 L 1002.3848 495.24219 L 1002.4004 495.32422 L 1002.416 495.41211 L 1004.8516 507.80664 L 1005.6348 512.85547 L 1006.0781 517.59375 L 1006.1367 521.07031 L 1006.5215 545.07031 L 1023.998 544.79102 L 1023.998 353.48438 L 1007.4199 352.61719 z M 1040.5801 352.61719 L 1024.002 353.48438 L 1024.002 544.79102 L 1041.4785 545.07031 L 1041.8633 521.07031 L 1041.9219 517.59375 L 1042.3652 512.85547 L 1043.1484 507.80664 L 1045.584 495.41211 L 1045.5996 495.32422 L 1045.6152 495.24219 L 1046.9297 488.28125 L 1047.0039 487.91211 L 1047.0625 487.54297 L 1048.2363 480.00586 L 1048.3242 479.48047 L 1048.3828 478.94336 L 1049.2988 470.66797 L 1049.3652 470.03906 L 1049.4023 469.41211 L 1049.9355 460.22852 L 1049.9785 459.55859 L 1049.9785 458.88672 L 1050.002 448.61719 L 1050.002 447.95312 L 1049.9648 447.28906 L 1049.3438 435.77344 L 1049.3125 435.13867 L 1049.2441 434.51172 L 1047.8652 421.57812 L 1047.7988 420.99414 L 1047.709 420.41797 L 1045.4434 405.89844 L 1043.2734 392.02734 L 1042.041 380.43945 L 1041.834 376.58594 L 1040.5801 352.61719 z M 1024 638.63867 L 1024.0117 830.50586 L 1045.1992 832.41016 L 1047.3477 808.50781 L 1047.998 801.2793 L 1048.0469 800.68945 L 1048.0703 800.09961 L 1048.4531 790.67188 L 1048.4746 790.14062 L 1048.4629 789.60156 L 1048.4238 780.52148 L 1048.4238 780.06445 L 1048.4023 779.60742 L 1048.0332 770.83008 L 1048.0176 770.46094 L 1047.9883 770.0918 L 1047.3691 761.57227 L 1047.3379 761.24023 L 1047.3086 760.90039 L 1045.6387 744.46094 L 1045.627 744.42383 L 1045.627 744.38086 L 1044.0098 729.04883 L 1043.9941 728.90039 L 1043.4043 721.42188 L 1043.0801 714.57227 L 1043.0352 707.75977 L 1043.3457 700.99805 L 1044.0527 694.33789 L 1045.2871 687.25195 L 1048.5703 670.38477 L 1048.6523 669.96289 L 1048.7188 669.54297 L 1049.1328 666.91406 L 1052.8828 643.20508 L 1024 638.63867 z M 1024 638.63867 L 995.11523 643.20508 L 998.86523 666.91406 L 999.2793 669.54297 L 999.3457 669.96289 L 999.42773 670.38477 L 1002.7109 687.25195 L 1003.9453 694.33789 L 1004.6523 700.99805 L 1004.9629 707.75977 L 1004.918 714.57227 L 1004.5938 721.42188 L 1004.0039 728.90039 L 1003.9883 729.04883 L 1002.3711 744.38086 L 1002.3711 744.42383 L 1002.3594 744.46094 L 1000.6895 760.90039 L 1000.6602 761.24023 L 1000.6289 761.57227 L 1000.0098 770.0918 L 999.98047 770.46094 L 999.96484 770.83008 L 999.5957 779.60742 L 999.57422 780.06445 L 999.57422 780.52148 L 999.5332 789.60156 L 999.52734 790.14062 L 999.54883 790.67188 L 999.93164 800.09961 L 999.95508 800.68945 L 1000.0039 801.2793 L 1000.6543 808.50781 L 1002.8027 832.41016 L 1023.9902 830.50586 L 1024 638.63867 z M 1003.9297 923.02148 L 1000.9316 946.83594 L 1000.1875 952.73438 L 1000.002 954.22461 L 1000.002 955.73047 L 1000.002 1024 L 1000.002 1092.2695 L 1000.002 1093.7754 L 1000.1875 1095.2656 L 1000.9316 1101.1641 L 1003.9297 1124.9785 L 1024 1122.4531 L 1044.0703 1124.9785 L 1047.0684 1101.1641 L 1047.8125 1095.2656 L 1047.998 1093.7754 L 1047.998 1092.2695 L 1047.998 1024 L 1047.998 955.73047 L 1047.998 954.22461 L 1047.8125 952.73438 L 1047.0684 946.83594 L 1044.0703 923.02148 L 1024 925.54688 L 1003.9297 923.02148 z M 1002.8027 1215.5898 L 1000.6543 1239.4922 L 1000.0039 1246.7207 L 999.95508 1247.3105 L 999.93164 1247.9004 L 999.54883 1257.3281 L 999.52734 1257.8594 L 999.5332 1258.3984 L 999.57422 1267.4785 L 999.57422 1267.9355 L 999.5957 1268.3926 L 999.96484 1277.1699 L 999.98047 1277.5391 L 1000.0117 1277.9082 L 1000.6309 1286.4277 L 1000.6602 1286.7598 L 1000.6895 1287.0996 L 1002.3594 1303.5391 L 1002.3711 1303.5762 L 1002.3711 1303.6191 L 1003.9883 1318.9512 L 1004.0039 1319.0996 L 1004.5938 1326.5781 L 1004.918 1333.4277 L 1004.9629 1340.2402 L 1004.6523 1347.002 L 1003.9453 1353.6621 L 1002.7109 1360.748 L 999.42773 1377.6152 L 999.3457 1378.0371 L 999.2793 1378.457 L 998.86523 1381.0859 L 995.11523 1404.7949 L 1024 1409.3613 L 1023.9902 1217.4941 L 1002.8027 1215.5898 z M 1024 1409.3613 L 1052.8828 1404.7949 L 1049.1328 1381.0879 L 1048.7188 1378.459 L 1048.6523 1378.0371 L 1048.5703 1377.6172 L 1045.2871 1360.75 L 1044.0527 1353.6621 L 1043.3457 1347.0039 L 1043.0352 1340.2422 L 1043.0801 1333.4277 L 1043.4043 1326.5781 L 1043.9941 1319.0996 L 1044.0098 1318.9512 L 1045.627 1303.6191 L 1045.627 1303.5762 L 1045.6387 1303.5391 L 1047.3086 1287.0996 L 1047.3379 1286.7598 L 1047.3691 1286.4277 L 1047.9883 1277.9082 L 1048.0176 1277.5391 L 1048.0332 1277.1699 L 1048.4023 1268.3926 L 1048.4238 1267.9355 L 1048.4238 1267.4785 L 1048.4629 1258.3984 L 1048.4746 1257.8594 L 1048.4531 1257.3281 L 1048.0703 1247.9004 L 1048.0469 1247.3105 L 1047.998 1246.7207 L 1047.3477 1239.4922 L 1045.1992 1215.5898 L 1024.0117 1217.4941 L 1024 1409.3613 z M 1006.5215 1502.9297 L 1006.1367 1526.9297 L 1006.0781 1530.4062 L 1005.6348 1535.1445 L 1004.8516 1540.1934 L 1002.416 1552.5879 L 1002.4004 1552.6758 L 1002.3848 1552.7578 L 1001.0703 1559.7188 L 1000.9961 1560.0879 L 1000.9375 1560.457 L 999.76367 1567.9941 L 999.67578 1568.5195 L 999.61719 1569.0566 L 998.70117 1577.332 L 998.63477 1577.9609 L 998.59766 1578.5879 L 998.06445 1587.7715 L 998.02148 1588.4414 L 998.02148 1589.1133 L 997.99805 1599.3828 L 997.99805 1600.0469 L 998.03516 1600.7109 L 998.65625 1612.2266 L 998.6875 1612.8613 L 998.75586 1613.4883 L 1000.1348 1626.4219 L 1000.2012 1627.0059 L 1000.291 1627.582 L 1002.5566 1642.1016 L 1004.7266 1655.9727 L 1005.959 1667.5605 L 1006.166 1671.4141 L 1007.4199 1695.3828 L 1023.998 1694.5156 L 1023.998 1503.209 L 1006.5215 1502.9297 z M 1041.4785 1502.9297 L 1024.002 1503.209 L 1024.002 1694.5156 L 1040.5801 1695.3828 L 1041.834 1671.4141 L 1042.041 1667.5605 L 1043.2734 1655.9727 L 1045.4434 1642.1016 L 1047.709 1627.582 L 1047.7988 1627.0059 L 1047.8652 1626.4219 L 1049.2441 1613.4883 L 1049.3125 1612.8613 L 1049.3438 1612.2266 L 1049.9648 1600.7109 L 1050.002 1600.0469 L 1050.002 1599.3828 L 1049.9785 1589.1133 L 1049.9785 1588.4414 L 1049.9355 1587.7715 L 1049.4023 1578.5879 L 1049.3652 1577.9609 L 1049.2988 1577.332 L 1048.3828 1569.0566 L 1048.3242 1568.5195 L 1048.2363 1567.9941 L 1047.0625 1560.457 L 1047.0039 1560.0879 L 1046.9297 1559.7188 L 1045.6152 1552.7578 L 1045.5996 1552.6758 L 1045.584 1552.5879 L 1043.1484 1540.1934 L 1042.3652 1535.1445 L 1041.9219 1530.4062 L 1041.8633 1526.9297 L 1041.4785 1502.9297 z M 1007.7793 1787.8242 L 1006.916 1811.8086 L 1006.6641 1818.8066 L 1006.0371 1826.5723 L 1005.2031 1833.8887 L 1005.1797 1834.0508 L 1004.1035 1842.0371 L 1004.0879 1842.1328 L 1001.8359 1858.3594 L 1001.7969 1858.6328 L 1001.7676 1858.9121 L 1000.8301 1867.0469 L 1000.7871 1867.4453 L 1000.748 1867.8516 L 1000.0918 1876.0098 L 1000.0469 1876.5703 L 1000.0234 1877.1309 L 999.74219 1885.3535 L 999.7207 1886.0625 L 999.73438 1886.7793 L 999.94922 1895.084 L 999.97266 1895.9258 L 1000.0547 1896.7676 L 1000.8672 1905.1895 L 1000.9551 1906.1426 L 1001.125 1907.0801 L 1002.6387 1915.6504 L 1002.6387 1915.6582 L 1002.6387 1915.666 L 1003.3906 1919.8965 L 1003.9082 1924.3477 L 1004.291 1929.6621 L 1004.5273 1935.5527 L 1004.623 1949.0176 L 1004.4609 1955.373 L 1003.8789 1979.373 L 1024 1979.8613 L 1044.1211 1979.373 L 1043.5391 1955.373 L 1043.377 1949.0176 L 1043.4727 1935.5527 L 1043.709 1929.6621 L 1044.0918 1924.3477 L 1044.6094 1919.8965 L 1045.3613 1915.666 L 1045.3613 1915.6582 L 1045.3613 1915.6504 L 1046.875 1907.0801 L 1047.0449 1906.1426 L 1047.1328 1905.1895 L 1047.9453 1896.7676 L 1048.0273 1895.9258 L 1048.0508 1895.084 L 1048.2656 1886.7793 L 1048.2793 1886.0625 L 1048.2578 1885.3535 L 1047.9766 1877.1309 L 1047.9531 1876.5703 L 1047.9082 1876.0098 L 1047.252 1867.8516 L 1047.2129 1867.4453 L 1047.1699 1867.0469 L 1046.2324 1858.9121 L 1046.2031 1858.6328 L 1046.1641 1858.3594 L 1043.9102 1842.1328 L 1043.8965 1842.0371 L 1042.8203 1834.0508 L 1042.7969 1833.8887 L 1041.9629 1826.5723 L 1041.3359 1818.8066 L 1041.084 1811.8086 L 1040.2207 1787.8242 L 1024 1788.4102 L 1007.7793 1787.8242 z "
         style="color:#000000;font-style:normal;font-variant:normal;font-weight:normal;font-stretch:normal;font-size:medium;line-height:normal;font-family:sans-serif;font-variant-ligatures:normal;font-variant-position:normal;font-variant-caps:normal;font-variant-numeric:normal;font-variant-alternates:normal;font-feature-settings:normal;text-indent:0;text-align:start;text-decoration:none;text-decoration-line:none;text-decoration-style:solid;text-decoration-color:#000000;letter-spacing:normal;word-spacing:normal;text-transform:none;writing-mode:lr-tb;direction:ltr;text-orientation:mixed;dominant-baseline:auto;baseline-shift:baseline;text-anchor:start;white-space:normal;shape-padding:0;clip-rule:nonzero;display:inline;overflow:visible;visibility:visible;opacity:1;isolation:auto;mix-blend-mode:normal;color-interpolation:sRGB;color-interpolation-filters:linearRGB;solid-color:#000000;solid-opacity:1;vector-effect:none;fill:#ececec;fill-opacity:1;fill-rule:evenodd;stroke:none;stroke-width:48;stroke-linecap:round;stroke-linejoin:miter;stroke-miterlimit:4;stroke-dasharray:none;stroke-dashoffset:0;stroke-opacity:1;color-rendering:auto;image-rendering:auto;shape-rendering:auto;text-rendering:auto;enable-background:accumulate" />
    </g>
  </g>
</svg>
